<?xml version="1.0" encoding="UTF-8" standalone="no"?>
<svg
   data-v-423bf9ae=""
   viewBox="0 0 115 115"
   class="iconLeft"
   version="1.1"
   id="svg10"
   sodipodi:docname="icon.svg"
   inkscape:version="1.2.2 (b0a8486541, 2022-12-01)"
   width="115"
   height="115"
   xmlns:inkscape="http://www.inkscape.org/namespaces/inkscape"
   xmlns:sodipodi="http://sodipodi.sourceforge.net/DTD/sodipodi-0.dtd"
   xmlns="http://www.w3.org/2000/svg"
   xmlns:svg="http://www.w3.org/2000/svg">
  <defs
     id="defs14" />
  <sodipodi:namedview
     id="namedview12"
     pagecolor="#ffffff"
     bordercolor="#666666"
     borderopacity="1.0"
     inkscape:showpageshadow="2"
     inkscape:pageopacity="0.0"
     inkscape:pagecheckerboard="0"
     inkscape:deskcolor="#d1d1d1"
     showgrid="false"
     inkscape:zoom="2.1071429"
     inkscape:cx="196"
     inkscape:cy="55.525424"
     inkscape:window-width="2240"
     inkscape:window-height="1346"
     inkscape:window-x="0"
     inkscape:window-y="27"
     inkscape:window-maximized="1"
     inkscape:current-layer="svg10" />
  <!---->
  <!---->
  <!---->
  <!---->
  <g
     data-v-423bf9ae=""
     id="d030a6f6-5681-4977-a38e-cb46a8250d56"
     transform="matrix(1.1111159,0,0,1.1111159,9.5093083,1.9444486)"
     stroke="none"
     fill="#4caf50">
    <path
       d="M 85.299,20.57 C 84.615,20.038 83.743,19.916 82.973,20.251 L 45.799,36.348 c -1.616,0.703 -3.639,1.042 -5.717,1.042 -2.897,0.008 -5.895,-0.667 -7.984,-1.586 a 9.524,9.524 0 0 1 -1.813,-0.998 c 0.162,-0.079 0.346,-0.162 0.562,-0.246 l 33.818,-14.637 5.047,2.159 v -6.308 c 0,-0.939 -0.398,-1.829 -1.082,-2.354 -0.685,-0.532 -1.56,-0.654 -2.322,-0.319 L 29.1,29.196 c -1.146,0.466 -2.131,1.031 -2.967,1.86 -0.819,0.801 -1.527,2.124 -1.516,3.593 0,0.04 0.011,0.105 0.011,0.105 v 56.681 c 0,0.022 -0.007,0.049 -0.007,0.075 0,0.019 0.007,0.026 0.007,0.045 v 0.061 h 0.008 c 0.083,2.007 1.078,3.288 2.033,4.134 3.004,2.648 8.046,4.13 13.407,4.25 2.54,0 5.12,-0.402 7.502,-1.409 L 84.76,82.477 c 0.984,-0.402 1.623,-1.473 1.623,-2.649 v -56.9 C 86.381,21.99 85.976,21.102 85.299,20.57 Z"
       id="path5" />
    <path
       d="M 61.722,9.794 C 61.655,8.945 61.309,8.144 60.677,7.656 59.997,7.124 59.121,7.002 58.347,7.337 L 21.176,23.433 C 19.56,24.132 17.533,24.476 15.458,24.476 12.561,24.48 9.562,23.805 7.473,22.887 A 9.632,9.632 0 0 1 5.661,21.893 7.23,7.23 0 0 1 6.223,21.647 L 40.037,7.009 45.077,9.168 V 2.86 C 45.077,1.921 44.669,1.032 43.985,0.506 43.307,-0.026 42.418,-0.15 41.653,0.187 L 4.479,16.282 C 3.333,16.744 2.352,17.31 1.516,18.142 0.693,18.943 -0.011,20.266 0,21.737 a 0.75,0.75 0 0 0 0.011,0.103 v 56.683 c 0,0.022 -0.004,0.053 -0.004,0.075 0,0.015 0.004,0.022 0.004,0.082 v 0.075 h 0.007 c 0.081,2.007 1.079,3.288 2.033,4.123 3.004,2.649 8.046,4.085 13.41,4.22 1.447,0 2.901,-0.188 4.333,-0.458 V 34.769 a 9.842,9.842 0 0 1 2.933,-7.142 c 1.227,-1.212 2.724,-2.17 4.579,-2.909 z"
       id="path7" />
  </g>
  <!---->
</svg>
